PathFileType	4	(X/Y/Z)	Demo_SinglePerson_0-99.trc
DataRate	CameraRate	NumFrames	NumMarkers	Units	OrigDataRate	OrigDataStartFrame	OrigNumFrames
60	60	6	22	m	60	62	100
Frame#	Time	Hip			RHip			RKnee			RAnkle			RBigToe			RSmallToe			RHeel			LHip			LKnee			LAnkle			LBigToe			LSmallToe			LHeel			Neck			Head			Nose			RShoulder			RElbow			RWrist			LShoulder			LElbow			LWrist			
		X1	Y1	Z1	X2	Y2	Z2	X3	Y3	Z3	X4	Y4	Z4	X5	Y5	Z5	X6	Y6	Z6	X7	Y7	Z7	X8	Y8	Z8	X9	Y9	Z9	X10	Y10	Z10	X11	Y11	Z11	X12	Y12	Z12	X13	Y13	Z13	X14	Y14	Z14	X15	Y15	Z15	X16	Y16	Z16	X17	Y17	Z17	X18	Y18	Z18	X19	Y19	Z19	X20	Y20	Z20	X21	Y21	Z21	X22	Y22	Z22	
62	1.0333333333333334	-0.12919034621658423	0.9647791339686519	-0.9906348628611683	-0.23295546106833367	1.0023532827053476	-0.9945796935548032	-0.376086615607324	0.6677705276867442	-0.7943799732564185	-0.46502167794469873	0.28764502020840105	-0.8034136534430094	-0.43747286456804807	0.2325739295980076	-0.6323898662295669	-0.4954952905016253	0.23913186846327375	-0.6587533380888865	-0.46550416565606184	0.2328825697578902	-0.8363777642758027	-0.052283388983966686	0.903310471840386	-1.0320105782471058	-0.06427615597359616	0.5032403187804481	-0.9801263149653457	-0.02027856520279617	0.15465055668351105	-1.1498881155270821	-0.021795865094800623	0.08276956844940712	-0.9856499554076317	0.0176030506531017	0.080249747320753	-1.0306411132715412	-0.019385700071944737	0.10322167681424613	-1.2068516721940141	0.21063308073472048	1.3439489265191367	-0.8854436317163938	0.3695255542825008	1.4969518903098562	-0.6982859178777854	0.27442393241044044	1.3340703160046379	-0.7388130395282688	0.03206287219464379	1.4391053176126767	-0.9116753774466292	-0.22658336475145344	1.4823639252145324	-0.8762544706207562	-0.10487781207194594	1.5851484892165493	-0.6838449566095063	0.3118970255734616	1.1929643801090732	-0.9767220793377855	0.37739482998033486	0.9252870659961933	-1.0241620886843936	0.41461990718763847	0.6740494309759728	-0.9371499213696683
63	1.05	-0.12790667877765532	0.9647791454516973	-0.9833884457310184	-0.23475708834602776	0.9959946399437819	-0.9858362369087161	-0.35274633875645595	0.656693489279075	-0.7889859578327704	-0.41435704479984853	0.26749677325528437	-0.791388492873775	-0.38623059902291407	0.21171799453275855	-0.6238583111149946	-0.4401093906872359	0.2189611426107348	-0.6456522203900352	-0.41803245628704705	0.21792887508947315	-0.8133484351367799	-0.04433931008199164	0.9154574344361096	-0.9742760451663904	-0.058831636521062755	0.5065865821277138	-0.9825043169496139	-0.019752271589693195	0.15519966999993773	-1.1517884766357847	-0.020203164856799044	0.0894505070920415	-0.9901561482142728	0.021949313855756724	0.08479195264556719	-1.0327554022233894	-0.018777159552184203	0.10413652962120695	-1.1997472834058716	0.20721622897258826	1.3495234876828106	-0.8744898206366302	0.3600222465134136	1.5021370206664753	-0.6772438146864863	0.2744419514267908	1.3442241174089478	-0.7229836944122928	0.024841575810176448	1.439249438462285	-0.9045667524784966	-0.23402641796025453	1.4719078231867853	-0.871986958714494	-0.1170515695467402	1.5756104187087783	-0.6693926308382013	0.3074316259310469	1.1994641823640486	-0.9753646147868568	0.37554608769534653	0.9304369824120936	-1.0170353000775836	0.4140680207644704	0.6811472040565888	-0.9271576703359725
64	1.0666666666666667	-0.1226787894528298	0.9636232804844347	-0.976712016241496	-0.23401279990457927	0.994564613577948	-0.9774256051334411	-0.33079415541132945	0.6421245997543906	-0.7840845766096702	-0.3809245314880564	0.25282707296144424	-0.7596527238491939	-0.3366399773387519	0.20685518033662978	-0.5710772817924896	-0.3982678597728416	0.20067223695646688	-0.6015758216035847	-0.3868671163084384	0.1968370251409611	-0.7867376267018455	-0.039851902689637536	0.9148323983902755	-0.9657730742037558	-0.05687157603464832	0.5238763009067182	-0.9594950999072851	-0.01487918043863481	0.15219051569003328	-1.152222188846845	-0.01455934734906037	0.08970078907554678	-0.9846249817947831	0.027814204877856425	0.08047230956155053	-1.0404517636639876	-0.016231271824242947	0.1053639309307943	-1.2075543371118223	0.1958255250957679	1.3518299750275269	-0.8712012632633783	0.359305736639738	1.5067263987214432	-0.665687789631115	0.2779247091094201	1.3277395015898212	-0.7426329027157755	0.020692083483004123	1.4374079745414485	-0.9034485260666834	-0.2469571095815622	1.4664491696093476	-0.8635187561883116	-0.12846329462491418	1.5699244930162288	-0.6672813805623271	0.2997450220311035	1.2071158876514638	-0.9655494187156154	0.373635071891994	0.9291304534927548	-1.0035674162122223	0.41546244881280026	0.681659683531977	-0.9185773745198624
65	1.0833333333333333	-0.12041586440389077	0.9611842268614373	-0.9662166908226463	-0.23001208042712382	0.9865997382066192	-0.9700185061731253	-0.30512088399422127	0.6277776814964728	-0.7988353721050313	-0.34168964345691183	0.24843852587160853	-0.741833604869169	-0.2986464561325226	0.19243469802373955	-0.5726477191769586	-0.35009395931705617	0.19449386932159118	-0.5964176108200278	-0.34406413286130455	0.19997158347606855	-0.761927190206156	-0.03297787795893404	0.9131503000491291	-0.9582785515786197	-0.054011691910347846	0.49881680901818226	-0.9750509146915182	-0.02080590356145584	0.14845841933315732	-1.155382752370714	-0.004740611923710066	0.05973258312006389	-0.9885073369790061	0.023721768510053736	0.06869368515010907	-1.035859283860007	-0.021583198642389192	0.09581568778250193	-1.207683692321474	0.19285839518919057	1.352960877903234	-0.8623049263958021	0.3416670178506591	1.5131128293850158	-0.6567471697729129	0.2631661745591536	1.3364728209424819	-0.7189086087729213	0.01046115733351044	1.4387840655670254	-0.8899123294313548	-0.24968693185742363	1.4618619054464703	-0.8542912202799798	-0.14197876743349738	1.559184841109728	-0.6515817469862455	0.29746201901723535	1.2087625841153755	-0.9560107222444847	0.3743370633696831	0.9443104372612794	-1.0056245975934832	0.4154908634585985	0.6947412815893718	-0.9194950535409379
66	1.1	-0.1201295791112761	0.9564469484781312	-0.9581189929959757	-0.22860865606333602	0.9793241742162857	-0.9650339074849362	-0.28210767110666995	0.6139589067452456	-0.7933214004450178	-0.30536658211900897	0.23664964488944046	-0.7433074121246296	-0.25859350726736513	0.17741379509623853	-0.5699746917766683	-0.3091247186678146	0.18159454603420352	-0.5887513689878981	-0.30839789123439115	0.19176130037735814	-0.7645235238019958	-0.03527037081643829	0.912491324770844	-0.9579607654407073	-0.04625404763030025	0.4976123295795256	-0.978645893496516	-0.023915443937661866	0.14462075790315582	-1.1442391943619232	0.0014961962220189087	0.06016836446870112	-0.9887982940178126	0.028515212796247007	0.071479376910525	-1.0386911086908888	-0.02745850729869212	0.09168023087378852	-1.1949631574999724	0.1878283430005483	1.3567471886812816	-0.8503141043157362	0.3363778375742354	1.5162292120713494	-0.6403397690601571	0.2482507818000886	1.3377628394429855	-0.6920049555617056	0.006541784580469857	1.4423518718048376	-0.8763104458763104	-0.2616192028266814	1.4532785978604936	-0.8503187680963692	-0.15355409226948488	1.5494605689579524	-0.6466650057695175	0.29517048201477775	1.218273443647792	-0.9481211011745164	0.37145621318680627	0.9518399965293611	-0.9923181014164678	0.4142313448149382	0.7011175083920487	-0.9067783915805729
67	1.1166666666666667	-0.11718534255908969	0.9554001644830062	-0.9534632590463203	-0.22781573435700794	0.9783642439413639	-0.9523827795037004	-0.26038711336039266	0.5969209687659879	-0.7957452897274069	-0.2724034177430339	0.22346561047580768	-0.7434526928853072	-0.22453238773908518	0.1692091029441517	-0.5623760058771421	-0.2770482641970849	0.17174952670314184	-0.5755054550390537	-0.27649978869791747	0.17798507108274825	-0.7625964474615086	-0.033742254947131754	0.9162944351040989	-0.9482919684464067	-0.04395040115652538	0.5017707001096688	-0.9754073078449882	-0.021063030218909574	0.1480997617880089	-1.1435013831104162	0.020103978701473388	0.07563179508521034	-1.000000869734308	0.036974763979457294	0.07435933171881809	-1.0386707660653456	-0.02702192045483549	0.10012558543259553	-1.1925980682198978	0.181582553195383	1.366263254465975	-0.840157238953837	0.3279910230967391	1.527391685754151	-0.6355208168731671	0.25193475577386154	1.3485890713997775	-0.6877161196687693	-0.004613485017206509	1.4435720573360704	-0.868441253234462	-0.2682348801980027	1.4491529842673916	-0.8461574299539828	-0.16222140751262318	1.5496787124282903	-0.6453779470669224	0.2892998967921166	1.226464072797069	-0.9418448295235906	0.3705901166956939	0.9518839904398068	-0.9896352927404666	0.415158983270949	0.7064307164830865	-0.8962402792053236
